Coordinates
version=1
nRows=7
nColumns=63
inDegrees=yes

Units are S.I. units (second, meters, Newtons, ...)
If the header above contains a line with 'inDegrees', this indicates whether rotational values are in degrees (yes) or radians (no).

endheader
time	pelvis_tilt	pelvis_list	pelvis_rotation	pelvis_tx	pelvis_ty	pelvis_tz	hip_flexion_r	hip_adduction_r	hip_rotation_r	knee_angle_r	knee_angle_r_beta	ankle_angle_r	subtalar_angle_r	mtp_angle_r	hip_flexion_l	hip_adduction_l	hip_rotation_l	knee_angle_l	knee_angle_l_beta	ankle_angle_l	subtalar_angle_l	mtp_angle_l	L5_S1_Flex_Ext	L5_S1_Lat_Bending	L5_S1_axial_rotation	L4_L5_Flex_Ext	L4_L5_Lat_Bending	L4_L5_axial_rotation	L3_L4_Flex_Ext	L3_L4_Lat_Bending	L3_L4_axial_rotation	L2_L3_Flex_Ext	L2_L3_Lat_Bending	L2_L3_axial_rotation	L1_L2_Flex_Ext	L1_L2_Lat_Bending	L1_L2_axial_rotation	L1_T12_Flex_Ext	L1_T12_Lat_Bending	L1_T12_axial_rotation	Abs_r3	Abs_r2	Abs_r1	Abs_t1	Abs_t2	neck_flexion	neck_bending	neck_rotation	arm_flex_r	arm_add_r	arm_rot_r	elbow_flex_r	pro_sup_r	wrist_flex_r	wrist_dev_r	arm_flex_l	arm_add_l	arm_rot_l	elbow_flex_l	pro_sup_l	wrist_flex_l	wrist_dev_l
      0.00000000	      0.36592995	     -6.84448391	    100.40222025	      0.26070620	      0.80195035	      0.84460062	     -1.76954809	     -0.01044332	     11.66262088	      2.03565954	      0.03552896	     22.25362187	    -12.17267009	      0.00000000	     -0.02675769	      0.34056678	      4.76365010	      2.33860734	      0.04081640	     26.37165138	     -8.77795721	      0.00000000	     -0.25104739	      0.07021377	      1.60798353	     -0.46622010	      0.09338431	      1.70848250	     -0.41244575	      0.17071775	      1.70848250	     -0.28692206	      0.17071775	      1.40698559	     -0.23312260	      0.14317991	      1.30648662	     -0.14344848	      0.10876112	      1.20598765	     -1.79320638	      0.79427217	      8.94312201	      0.00000000	      0.00000000	     23.47256622	     -8.24715157	     -8.68912055	     18.80039264	     -3.86851618	     57.51526226	     29.99049124	     54.37867044	     -0.84937470	     12.92418488	     27.84216698	      2.74658699	     78.74778803	     24.83232368	     86.61138874	     -2.01198759	      9.07059547
      0.01666667	      0.42599250	     -6.63969802	     99.38320492	      0.26207090	      0.80136854	      0.84269219	     -1.74092170	      0.04508550	     12.17447690	      2.67893919	      0.04675631	     22.62563724	    -11.96331092	      0.00000000	     -0.32425044	      0.26720146	      4.05452047	      2.97607588	      0.05194232	     26.69064144	     -9.84056430	      0.00000000	     -0.27061388	      0.08616602	      1.67946425	     -0.50255704	      0.11460081	      1.78443076	     -0.44459154	      0.20950406	      1.78443076	     -0.30928460	      0.20950406	      1.46953121	     -0.25129205	      0.17570975	      1.36456470	     -0.15462877	      0.13347117	      1.25959818	     -1.93296789	      0.97472726	      9.34067629	      0.00000000	      0.00000000	     22.67528897	     -7.16924491	     -7.85099328	     17.54632607	     -2.92437740	     54.32461027	     29.42288645	     57.13386598	     -1.16157043	     13.50868564	     25.83431554	      2.36069909	     70.53074685	     25.46290183	     82.87357145	     -2.08408338	     10.40344407
      0.03333333	      0.43451099	     -6.47434225	     98.31525120	      0.26360616	      0.80103610	      0.84119239	     -1.64191633	      0.05380578	     12.78378717	      3.30002864	      0.05759637	     23.05835437	    -11.56114574	      0.00000000	     -0.57035266	      0.24989920	      3.11777264	      3.49391277	      0.06098028	     26.81762364	    -10.58468846	      0.00000000	     -0.28426488	      0.08824083	      1.81193623	     -0.52790832	      0.11736031	      1.92518225	     -0.46701878	      0.21454876	      1.92518225	     -0.32488634	      0.21454876	      1.58544420	     -0.26396837	      0.17994070	      1.47219819	     -0.16242896	      0.13668505	      1.35895217	     -2.03047564	      0.99819793	     10.07744575	      0.00000000	      0.00000000	     22.07679539	     -6.28545597	     -7.34829547	     16.78021163	     -2.32087955	     53.00130411	     28.88448947	     58.02228361	     -1.57187845	     13.50079044	     25.09115852	      2.35093301	     68.48018487	     25.16154755	     81.27521948	     -2.23330587	      9.62080328
      0.05000000	      0.46585990	     -6.29604531	     97.69154410	      0.26462024	      0.80078585	      0.83994206	     -1.63769052	      0.09668433	     12.85305247	      3.75890628	      0.06560529	     23.58697977	    -10.76851617	      0.00000000	     -0.79881001	      0.19346329	      2.43043485	      3.88625243	      0.06782790	     26.94321376	    -10.84857842	      0.00000000	     -0.30079388	      0.09053928	      1.90239285	     -0.55860431	      0.12041725	      2.02129240	     -0.49417426	      0.22013721	      2.02129240	     -0.34377732	      0.22013721	      1.66459374	     -0.27931719	      0.18462771	      1.54569419	     -0.17187362	      0.14024535	      1.42679463	     -2.14854058	      1.02419848	     10.58053829	      0.00000000	      0.00000000	     21.71421899	     -6.03373933	     -7.36905987	     15.70554173	     -1.65080771	     48.59299090	     28.64027941	     64.96761109	     -0.82676123	     14.43294907	     24.71749962	      2.36480071	     68.19242549	     25.07870928	     79.75965753	     -2.22269594	      9.91678833
      0.06666667	      0.40001925	     -6.17455334	     97.15984563	      0.26568887	      0.80071645	      0.83908518	     -1.59994386	      0.05436083	     13.08832302	      4.12097501	      0.07192458	     24.01899409	    -10.25456994	      0.00000000	     -0.95504668	      0.23675825	      1.94832208	      4.18420597	      0.07302817	     26.85711773	    -11.20110426	      0.00000000	     -0.31164210	      0.07609757	      1.99459334	     -0.57875054	      0.10120976	      2.11925543	     -0.51199680	      0.18502362	      2.11925543	     -0.35617575	      0.18502362	      1.74526917	     -0.28939085	      0.15517816	      1.62060709	     -0.17807229	      0.11787513	      1.49594501	     -2.22602834	      0.86083090	     11.09332979	      0.00000000	      0.00000000	     21.50504713	     -5.75172413	     -7.44462963	     15.46343055	     -1.30920126	     48.28657382	     28.09944264	     65.99116518	     -0.85218891	     14.27047527	     25.09306545	      2.38575140	     71.07372187	     24.54798490	     82.08372767	     -1.93224955	      8.84502594
      0.08333333	      0.41926885	     -6.10768167	     97.11898008	      0.26587451	      0.80064147	      0.83814524	     -1.66923843	      0.09953014	     13.15801461	      4.18482089	      0.07303890	     24.12156761	    -10.21989008	      0.00000000	     -1.06923563	      0.19334650	      1.90935434	      4.30018395	      0.07505237	     26.77355599	    -11.21735034	      0.00000000	     -0.30907712	      0.07350115	      1.98383994	     -0.57398711	      0.09775652	      2.10782994	     -0.50778280	      0.17871068	      2.10782994	     -0.35324424	      0.17871068	      1.73585995	     -0.28700901	      0.14988354	      1.61186995	     -0.17660666	      0.11385327	      1.48787996	     -2.20770694	      0.83145966	     11.03352259	      0.00000000	      0.00000000	     21.59350402	     -5.74661187	     -7.45660688	     15.23926648	     -1.20908880	     48.35122545	     27.96045614	     66.02434503	     -0.85824914	     14.30628738	     24.73058367	      2.36241988	     71.25979549	     24.49684135	     82.17958882	     -1.87405552	      8.87888270
      0.10000000	      0.32664021	     -6.01774701	     96.60720948	      0.26704654	      0.80078120	      0.83799248	     -1.51574455	      0.01138990	     12.49960968	      4.58730801	      0.08006363	     25.07952972	     -8.24589697	      0.00000000	     -1.13124717	      0.27275032	      1.56343166	      4.52393726	      0.07895760	     26.64719506	    -11.72905766	      0.00000000	     -0.31964174	      0.05033637	      2.13005793	     -0.59360667	      0.06694737	      2.26318655	     -0.52513941	      0.12238785	      2.26318655	     -0.36531854	      0.12238785	      1.86380069	     -0.29681932	      0.10264593	      1.73067207	     -0.18264329	      0.07797104	      1.59754345	     -2.28316895	      0.56941508	     11.84674321	      0.00000000	      0.00000000	     21.36148165	     -5.63352681	     -8.02009555	     15.24926830	     -0.95175158	     47.97335328	     27.30757498	     67.56788666	     -0.63398151	     14.05468276	     26.57125474	      2.84226917	     81.02238550	     23.03988069	     85.27653261	     -1.69842316	      6.59552427
